<svg width="184" height="96" viewBox="0 0 184 96" fill="none" xmlns="http://www.w3.org/2000/svg">
<path d="M54.0859 96C51.2059 96 48.3579 95.168 45.5419 93.504C42.7899 91.904 39.2699 89.408 34.9819 86.016C31.7819 83.456 29.0299 81.376 26.7259 79.776C24.4859 78.24 22.0219 76.928 19.3339 75.84C16.7099 74.752 14.0219 74.208 11.2699 74.208C10.3099 74.208 9.57388 74.24 9.06188 74.304L23.3659 7.776C19.0779 9.504 15.7499 12.16 13.3819 15.744C11.0779 19.264 9.92588 23.584 9.92588 28.704C9.92588 31.072 10.1499 32.736 10.5979 33.696C11.0459 34.592 11.2699 35.104 11.2699 35.232C7.81388 35.232 5.22188 34.528 3.49388 33.12C1.82988 31.648 0.997875 29.248 0.997875 25.92C0.997875 21.824 2.66188 17.856 5.98988 14.016C9.38188 10.112 13.7019 6.976 18.9499 4.608C24.1979 2.176 29.4459 0.959999 34.6939 0.959999C35.5899 0.959999 36.8699 1.024 38.5339 1.152L23.7499 70.08C25.5419 70.528 27.3659 71.168 29.2219 72C31.1419 72.896 33.4459 74.08 36.1339 75.552C40.2939 77.792 43.8459 79.488 46.7899 80.64C49.7339 81.856 52.8059 82.464 56.0059 82.464C58.8859 82.464 61.5739 81.952 64.0699 80.928C63.5579 85.6 62.4059 89.28 60.6139 91.968C58.8859 94.656 56.7099 96 54.0859 96ZM48.3169 72.576C44.6689 72.576 41.6289 71.328 39.1969 68.832C36.7649 66.336 35.5489 62.432 35.5489 57.12C35.5489 52.384 36.4769 47.424 38.3329 42.24C40.2529 36.992 43.0689 32.576 46.7809 28.992C50.5569 25.344 55.0369 23.52 60.2209 23.52C62.8449 23.52 64.7969 23.968 66.0769 24.864C67.3569 25.76 67.9969 26.944 67.9969 28.416V29.088L69.0529 24H82.8769L75.9649 56.64C75.7089 57.6 75.5809 58.624 75.5809 59.712C75.5809 62.464 76.8929 63.84 79.5169 63.84C81.3089 63.84 82.8449 63.008 84.1249 61.344C85.4689 59.68 86.5249 57.504 87.2929 54.816H91.3249C88.9569 61.728 86.0129 66.432 82.4929 68.928C79.0369 71.36 75.5489 72.576 72.0289 72.576C69.3409 72.576 67.1649 71.84 65.5009 70.368C63.9009 68.832 62.9409 66.624 62.6209 63.744C60.7649 66.368 58.6849 68.512 56.3809 70.176C54.1409 71.776 51.4529 72.576 48.3169 72.576ZM54.5569 63.264C56.1569 63.264 57.7249 62.528 59.2609 61.056C60.8609 59.52 61.9489 57.44 62.5249 54.816L67.1329 33.12C67.1329 32.288 66.8129 31.488 66.1729 30.72C65.5329 29.888 64.5409 29.472 63.1969 29.472C60.6369 29.472 58.3329 30.976 56.2849 33.984C54.2369 36.928 52.6369 40.512 51.4849 44.736C50.3329 48.896 49.7569 52.576 49.7569 55.776C49.7569 58.976 50.2049 61.024 51.1009 61.92C52.0609 62.816 53.2129 63.264 54.5569 63.264ZM98.8481 72.576C95.2001 72.576 92.1601 71.328 89.7281 68.832C87.2961 66.336 86.0801 62.432 86.0801 57.12C86.0801 52.384 87.0081 47.424 88.8641 42.24C90.7841 36.992 93.6001 32.576 97.3121 28.992C101.088 25.344 105.568 23.52 110.752 23.52C113.376 23.52 115.328 23.968 116.608 24.864C117.888 25.76 118.528 26.944 118.528 28.416V28.8L123.232 6.72L137.44 4.8L126.4 56.64C126.144 57.6 126.016 58.624 126.016 59.712C126.016 60.992 126.304 61.92 126.88 62.496C127.52 63.008 128.544 63.264 129.952 63.264C131.744 63.264 133.28 62.496 134.56 60.96C135.904 59.424 136.96 57.376 137.728 54.816H141.76C137.856 66.272 131.424 72 122.464 72C119.84 72 117.696 71.296 116.032 69.888C114.432 68.48 113.44 66.432 113.056 63.744C111.392 66.304 109.376 68.416 107.008 70.08C104.704 71.744 101.984 72.576 98.8481 72.576ZM105.088 63.264C106.624 63.264 108.16 62.56 109.696 61.152C111.296 59.744 112.384 57.792 112.96 55.296V54.816L117.664 32.832C117.088 30.592 115.776 29.472 113.728 29.472C111.168 29.472 108.864 30.976 106.816 33.984C104.768 36.928 103.168 40.512 102.016 44.736C100.864 48.896 100.288 52.576 100.288 55.776C100.288 58.976 100.736 61.024 101.632 61.92C102.592 62.816 103.744 63.264 105.088 63.264ZM149.286 72.576C145.638 72.576 142.598 71.328 140.166 68.832C137.734 66.336 136.518 62.432 136.518 57.12C136.518 52.384 137.446 47.424 139.302 42.24C141.222 36.992 144.038 32.576 147.75 28.992C151.526 25.344 156.006 23.52 161.19 23.52C163.814 23.52 165.766 23.968 167.046 24.864C168.326 25.76 168.966 26.944 168.966 28.416V29.088L170.022 24H183.846L176.934 56.64C176.678 57.6 176.55 58.624 176.55 59.712C176.55 60.992 176.838 61.92 177.414 62.496C178.054 63.008 179.078 63.264 180.486 63.264C181.382 63.264 182.086 63.136 182.598 62.88C181.19 66.464 179.846 68.992 178.566 70.464C177.286 71.872 175.43 72.576 172.998 72.576C170.374 72.576 168.23 71.808 166.566 70.272C164.966 68.672 163.974 66.464 163.59 63.648C159.686 69.6 154.918 72.576 149.286 72.576ZM155.526 63.264C157.126 63.264 158.694 62.528 160.23 61.056C161.83 59.52 162.918 57.44 163.494 54.816L168.102 33.12C168.102 32.288 167.782 31.488 167.142 30.72C166.502 29.888 165.51 29.472 164.166 29.472C161.606 29.472 159.302 30.976 157.254 33.984C155.206 36.928 153.606 40.512 152.454 44.736C151.302 48.896 150.726 52.576 150.726 55.776C150.726 58.976 151.174 61.024 152.07 61.92C153.03 62.816 154.182 63.264 155.526 63.264Z" fill="#8A29BE"/>
</svg>
